<?xml version="1.0" encoding="UTF-8"?>
<svg xmlns="http://www.w3.org/2000/svg" xmlns:xlink="http://www.w3.org/1999/xlink" width="750pt" height="749.999995pt" viewBox="0 0 750 749.999995" version="1.2">
<g id="surface1">
<path style=" stroke:none;fill-rule:nonzero;fill:rgb(0%,0%,0%);fill-opacity:1;" d="M 374.730469 710.050781 C 285.207031 710.050781 200.90625 675.203125 137.648438 611.8125 C 74.257812 548.554688 39.414062 464.257812 39.414062 374.730469 C 39.414062 285.207031 74.257812 200.90625 137.648438 137.648438 C 200.90625 74.257812 285.207031 39.414062 374.730469 39.414062 C 464.257812 39.414062 548.554688 74.257812 611.8125 137.648438 C 675.203125 201.042969 710.050781 285.207031 710.050781 374.730469 C 710.050781 464.257812 675.203125 548.554688 611.8125 611.8125 C 548.554688 675.203125 464.257812 710.050781 374.730469 710.050781 Z M 374.730469 59.515625 C 290.566406 59.515625 211.359375 92.351562 151.855469 151.855469 C 92.351562 211.359375 59.515625 290.566406 59.515625 374.730469 C 59.515625 458.894531 92.351562 538.101562 151.855469 597.605469 C 211.359375 657.113281 290.566406 689.945312 374.730469 689.945312 C 458.894531 689.945312 538.101562 657.113281 597.605469 597.605469 C 657.113281 538.101562 689.945312 458.894531 689.945312 374.730469 C 689.945312 290.566406 657.113281 211.359375 597.605469 151.855469 C 538.101562 92.351562 458.894531 59.515625 374.730469 59.515625 Z M 374.730469 59.515625 "/>
<path style=" stroke:none;fill-rule:nonzero;fill:rgb(0%,0%,0%);fill-opacity:1;" d="M 401.179688 50.902344 L 374.988281 96.265625 L 348.796875 50.902344 Z M 401.179688 50.902344 "/>
</g>
</svg>
