<?xml version="1.0" encoding="UTF-8"?><svg xmlns="http://www.w3.org/2000/svg" xmlns:xlink="http://www.w3.org/1999/xlink" width="600" zoomAndPan="magnify" viewBox="0 0 600 599.999999" height="599.999999" preserveAspectRatio="xMidYMid meet" version="1.0"><defs><clipPath id="clip-0"><path d="M 116 60.546875 L 486 60.546875 L 486 287 L 116 287 Z M 116 60.546875 " clip-rule="nonzero"/></clipPath><clipPath id="clip-1"><path d="M 116 60.546875 L 301 60.546875 L 301 287 L 116 287 Z M 116 60.546875 " clip-rule="nonzero"/></clipPath></defs><g clip-path="url(#clip-0)"><path fill="rgb(37.649536%, 49.01886%, 54.508972%)" d="M 485.691406 247.90625 L 485.691406 99.441406 C 485.691406 77.988281 466.695312 60.546875 443.34375 60.546875 L 158.363281 60.546875 C 135.011719 60.546875 116.011719 77.988281 116.011719 99.441406 L 116.011719 247.929688 C 116.011719 269.359375 135.011719 286.804688 158.363281 286.804688 L 443.320312 286.804688 C 466.695312 286.804688 485.691406 269.359375 485.691406 247.90625 Z M 485.691406 247.90625 " fill-opacity="1" fill-rule="nonzero"/></g><path fill="rgb(92.549133%, 93.728638%, 94.509888%)" d="M 162.222656 258.519531 C 153.71875 258.519531 146.820312 252.1875 146.820312 244.390625 L 146.820312 102.960938 C 146.820312 95.144531 153.71875 88.828125 162.222656 88.828125 L 444.617188 88.828125 C 453.117188 88.828125 460.019531 95.164062 460.019531 102.960938 L 460.019531 110.035156 C 460.019531 117.851562 453.117188 124.167969 444.617188 124.167969 C 436.113281 124.167969 429.210938 130.5 429.210938 138.296875 L 429.210938 209.011719 C 429.210938 216.828125 436.113281 223.164062 444.617188 223.164062 C 453.117188 223.164062 460.019531 229.5 460.019531 237.292969 L 460.019531 244.371094 C 460.019531 252.1875 453.117188 258.5 444.617188 258.5 L 162.222656 258.5 Z M 162.222656 258.519531 " fill-opacity="1" fill-rule="nonzero"/><path fill="rgb(12.939453%, 58.81958%, 95.289612%)" d="M 509.863281 428.664062 C 504.625 399.417969 484.5 376.03125 454.660156 364.511719 C 420.628906 351.367188 382.039062 356.757812 353.941406 378.476562 L 222.644531 480.066406 C 206.089844 492.878906 182.1875 496.070312 161.8125 488.191406 C 145.667969 481.957031 134.90625 469.925781 132.28125 455.15625 C 131.726562 452.03125 131.4375 448.824219 131.4375 445.53125 C 131.4375 442.242188 131.726562 439.03125 132.28125 435.90625 C 134.929688 421.136719 145.691406 409.105469 161.8125 402.871094 C 170.644531 399.457031 180.113281 398.53125 189.351562 399.148438 L 186.621094 401.78125 C 180.582031 407.601562 178.671875 416.507812 181.816406 424.285156 C 184.9375 432.058594 192.496094 437.160156 200.855469 437.160156 L 260.84375 437.160156 C 272.179688 437.160156 281.382812 427.945312 281.382812 416.589844 L 281.382812 358.792969 C 281.382812 350.546875 276.453125 343.097656 268.894531 339.871094 C 261.335938 336.660156 252.546875 338.265625 246.613281 343.984375 L 224.617188 365.191406 C 200.382812 355.253906 172.429688 354.71875 147.046875 364.53125 C 117.183594 376.050781 97.078125 399.4375 91.839844 428.6875 C 90.855469 434.238281 90.339844 439.917969 90.339844 445.574219 C 90.339844 451.230469 90.835938 456.925781 91.839844 462.460938 C 97.078125 491.707031 117.203125 515.09375 147.046875 526.613281 C 159.390625 531.363281 172.328125 533.710938 185.144531 533.710938 C 207.695312 533.710938 229.855469 526.511719 247.761719 512.667969 L 379.058594 411.078125 C 395.613281 398.265625 419.539062 395.078125 439.890625 402.933594 C 456.035156 409.164062 466.796875 421.199219 469.425781 435.96875 C 469.980469 439.09375 470.289062 442.300781 470.289062 445.59375 C 470.289062 448.882812 470 452.09375 469.425781 455.21875 C 466.777344 469.988281 456.015625 482.019531 439.890625 488.253906 C 419.496094 496.152344 395.613281 492.941406 379.058594 480.128906 C 370.105469 473.214844 357.207031 474.839844 350.246094 483.832031 C 343.324219 492.820312 344.96875 505.734375 353.941406 512.6875 C 382.015625 534.410156 420.628906 539.777344 454.660156 526.652344 C 484.519531 515.136719 504.625 491.75 509.863281 462.5 C 510.847656 456.945312 511.363281 451.269531 511.363281 445.613281 C 511.363281 439.894531 510.871094 434.21875 509.863281 428.664062 Z M 509.863281 428.664062 " fill-opacity="1" fill-rule="nonzero"/><g clip-path="url(#clip-1)"><path fill="rgb(32.939148%, 42.749023%, 47.44873%)" d="M 300.851562 60.546875 L 158.363281 60.546875 C 135.011719 60.546875 116.011719 77.988281 116.011719 99.441406 L 116.011719 247.929688 C 116.011719 269.359375 135.011719 286.804688 158.363281 286.804688 L 300.851562 286.804688 L 300.851562 258.519531 L 162.222656 258.519531 C 153.71875 258.519531 146.820312 252.1875 146.820312 244.390625 L 146.820312 102.960938 C 146.820312 95.144531 153.71875 88.828125 162.222656 88.828125 L 300.851562 88.828125 Z M 300.851562 60.546875 " fill-opacity="1" fill-rule="nonzero"/></g><path fill="rgb(80.389404%, 81.568909%, 82.348633%)" d="M 300.851562 88.828125 L 162.222656 88.828125 C 153.71875 88.828125 146.820312 95.164062 146.820312 102.960938 L 146.820312 244.371094 C 146.820312 252.1875 153.71875 258.5 162.222656 258.5 L 300.851562 258.5 Z M 300.851562 88.828125 " fill-opacity="1" fill-rule="nonzero"/><path fill="rgb(11.369324%, 51.368713%, 83.139038%)" d="M 260.886719 338.222656 C 255.667969 338.222656 250.535156 340.199219 246.632812 343.984375 L 224.636719 365.191406 C 212.148438 360.070312 198.699219 357.457031 185.082031 357.457031 C 172.285156 357.457031 159.367188 359.78125 147.046875 364.550781 C 117.183594 376.070312 97.078125 399.457031 91.839844 428.707031 C 90.855469 434.257812 90.339844 439.9375 90.339844 445.59375 C 90.339844 451.25 90.835938 456.945312 91.839844 462.480469 C 97.078125 491.726562 117.203125 515.113281 147.046875 526.632812 C 158.136719 530.910156 169.738281 533.234375 181.28125 533.648438 L 189.003906 533.648438 C 210.199219 532.867188 230.878906 525.726562 247.761719 512.667969 L 300.851562 471.570312 L 300.851562 419.574219 L 222.644531 480.085938 C 212.128906 488.230469 198.636719 492.488281 184.980469 492.488281 C 177.132812 492.488281 169.246094 491.089844 161.8125 488.230469 C 145.667969 482 134.90625 469.964844 132.28125 455.199219 C 131.726562 452.070312 131.4375 448.863281 131.4375 445.574219 C 131.4375 442.28125 131.726562 439.074219 132.28125 435.945312 C 134.929688 421.179688 145.691406 409.144531 161.8125 402.914062 C 168.980469 400.15625 176.558594 399.003906 184.117188 399.003906 C 185.863281 399.003906 187.628906 399.066406 189.375 399.191406 L 186.640625 401.824219 C 180.605469 407.644531 178.695312 416.550781 181.835938 424.324219 C 184.957031 432.101562 192.515625 437.199219 200.875 437.199219 L 260.867188 437.199219 C 272.203125 437.199219 281.402344 427.984375 281.402344 416.632812 L 281.402344 358.792969 C 281.402344 350.546875 276.472656 343.097656 268.917969 339.871094 C 266.308594 338.757812 263.597656 338.222656 260.886719 338.222656 Z M 260.886719 338.222656 " fill-opacity="1" fill-rule="nonzero"/></svg>