<?xml version="1.0" encoding="UTF-8"?>
<svg xmlns="http://www.w3.org/2000/svg" xmlns:xlink="http://www.w3.org/1999/xlink" width="600pt" height="599.999999pt" viewBox="0 0 600 599.999999" version="1.2">
<defs>
<clipPath id="clip1">
  <path d="M 93 33.304688 L 507 33.304688 L 507 285 L 93 285 Z M 93 33.304688 "/>
</clipPath>
</defs>
<g id="surface1">
<g clip-path="url(#clip1)" clip-rule="nonzero">
<path style=" stroke:none;fill-rule:nonzero;fill:rgb(0%,0%,0%);fill-opacity:1;" d="M 460.582031 284.984375 L 139.8125 284.984375 C 114.542969 284.984375 93.992188 264.460938 93.992188 239.226562 L 93.992188 79.0625 C 93.992188 53.828125 114.542969 33.304688 139.8125 33.304688 L 460.582031 33.304688 C 485.855469 33.304688 506.40625 53.828125 506.40625 79.0625 L 506.40625 239.226562 C 506.40625 264.460938 485.855469 284.984375 460.582031 284.984375 Z M 139.8125 56.183594 C 127.191406 56.183594 116.902344 66.457031 116.902344 79.0625 L 116.902344 239.226562 C 116.902344 251.832031 127.191406 262.105469 139.8125 262.105469 L 460.582031 262.105469 C 473.207031 262.105469 483.492188 251.832031 483.492188 239.226562 L 483.492188 79.0625 C 483.492188 66.457031 473.207031 56.183594 460.582031 56.183594 Z M 139.8125 56.183594 "/>
</g>
<path style=" stroke:none;fill-rule:nonzero;fill:rgb(0%,0%,0%);fill-opacity:1;" d="M 254.375 445.148438 L 185.636719 445.148438 C 179.316406 445.148438 174.183594 440.023438 174.183594 433.707031 C 174.183594 427.390625 179.316406 422.265625 185.636719 422.265625 L 242.917969 422.265625 L 242.917969 365.066406 C 242.917969 358.75 248.050781 353.625 254.375 353.625 C 260.699219 353.625 265.832031 358.75 265.832031 365.066406 L 265.832031 433.707031 C 265.832031 440.023438 260.699219 445.148438 254.375 445.148438 Z M 254.375 445.148438 "/>
<path style=" stroke:none;fill-rule:nonzero;fill:rgb(0%,0%,0%);fill-opacity:1;" d="M 432.8125 559.59375 C 409.511719 559.59375 386.597656 551.929688 368.246094 537.21875 L 326.179688 503.46875 C 321.253906 499.511719 320.453125 492.324219 324.417969 487.382812 C 328.378906 482.464844 335.597656 481.6875 340.523438 485.621094 L 382.589844 519.371094 C 404.609375 537.011719 435.148438 541.609375 462.324219 531.292969 C 485.691406 522.460938 501.320312 504.429688 505.238281 481.777344 C 505.992188 477.339844 506.40625 472.742188 506.40625 468.027344 C 506.40625 463.3125 505.992188 458.714844 505.238281 454.230469 C 501.320312 431.578125 485.671875 413.550781 462.324219 404.71875 C 435.125 394.445312 404.585938 399.019531 382.589844 416.660156 L 232.171875 537.238281 C 203.875 559.914062 164.742188 565.863281 129.984375 552.730469 C 98.847656 540.945312 77.953125 516.535156 72.613281 485.691406 C 71.582031 479.949219 71.078125 474.042969 71.078125 468.027344 C 71.078125 462.011719 71.582031 456.105469 72.589844 450.363281 C 77.929688 419.519531 98.847656 395.109375 129.960938 383.324219 C 164.71875 370.214844 203.851562 376.140625 232.148438 398.816406 L 261.546875 422.382812 C 266.472656 426.339844 267.273438 433.546875 263.308594 438.464844 C 259.347656 443.40625 252.152344 444.1875 247.203125 440.226562 L 217.808594 416.660156 C 195.8125 399.019531 165.292969 394.445312 138.074219 404.71875 C 114.703125 413.550781 99.078125 431.578125 95.160156 454.230469 C 94.402344 458.714844 93.992188 463.3125 93.992188 468.027344 C 93.992188 472.742188 94.402344 477.339844 95.160156 481.824219 C 99.078125 504.476562 114.726562 522.503906 138.074219 531.335938 C 165.269531 541.609375 195.8125 537.035156 217.808594 519.394531 L 368.222656 398.816406 C 396.519531 376.140625 435.699219 370.214844 470.410156 383.324219 C 501.546875 395.109375 522.445312 419.519531 527.78125 450.363281 C 528.8125 456.105469 529.316406 462.011719 529.316406 468.027344 C 529.316406 474.042969 528.8125 479.949219 527.804688 485.691406 C 522.46875 516.535156 501.546875 540.945312 470.433594 552.730469 C 458.199219 557.351562 445.4375 559.59375 432.8125 559.59375 Z M 432.8125 559.59375 "/>
<path style=" stroke:none;fill-rule:nonzero;fill:rgb(0%,0%,0%);fill-opacity:1;" d="M 494.949219 239.226562 C 488.625 239.226562 483.492188 234.101562 483.492188 227.785156 C 483.492188 221.46875 478.363281 216.34375 472.039062 216.34375 C 453.089844 216.34375 437.667969 200.945312 437.667969 182.023438 L 437.667969 136.265625 C 437.667969 117.34375 453.089844 101.945312 472.039062 101.945312 C 478.363281 101.945312 483.492188 96.816406 483.492188 90.503906 C 483.492188 84.1875 488.625 79.0625 494.949219 79.0625 C 501.273438 79.0625 506.40625 84.1875 506.40625 90.503906 C 506.40625 109.425781 490.984375 124.824219 472.039062 124.824219 C 465.714844 124.824219 460.582031 129.949219 460.582031 136.265625 L 460.582031 182.023438 C 460.582031 188.339844 465.714844 193.464844 472.039062 193.464844 C 490.984375 193.464844 506.40625 208.863281 506.40625 227.785156 C 506.40625 234.101562 501.273438 239.226562 494.949219 239.226562 Z M 494.949219 239.226562 "/>
</g>
</svg>
