<?xml version="1.0" encoding="UTF-8"?>
<svg xmlns="http://www.w3.org/2000/svg" xmlns:xlink="http://www.w3.org/1999/xlink" width="750pt" height="749.999995pt" viewBox="0 0 750 749.999995" version="1.2">
<defs>
<clipPath id="clip1">
  <path d="M 306.652344 359.664062 L 442.96875 359.664062 L 442.96875 495.976562 L 306.652344 495.976562 Z M 306.652344 359.664062 "/>
</clipPath>
<clipPath id="clip2">
  <path d="M 374 359.664062 L 442.96875 359.664062 L 442.96875 495.976562 L 374 495.976562 Z M 374 359.664062 "/>
</clipPath>
<clipPath id="clip3">
  <path d="M 374 411 L 442.96875 411 L 442.96875 435 L 374 435 Z M 374 411 "/>
</clipPath>
<clipPath id="clip4">
  <path d="M 306.652344 411 L 375 411 L 375 435 L 306.652344 435 Z M 306.652344 411 "/>
</clipPath>
<clipPath id="clip5">
  <path d="M 306.652344 388 L 375 388 L 375 435 L 306.652344 435 Z M 306.652344 388 "/>
</clipPath>
<clipPath id="clip6">
  <path d="M 374 388 L 442.96875 388 L 442.96875 416 L 374 416 Z M 374 388 "/>
</clipPath>
</defs>
<g id="surface1">
<g clip-path="url(#clip1)" clip-rule="nonzero">
<path style=" stroke:none;fill-rule:nonzero;fill:rgb(0%,0%,0%);fill-opacity:1;" d="M 374.808594 359.664062 L 306.652344 378.597656 L 306.652344 488.40625 L 374.808594 495.976562 L 442.96875 488.40625 L 442.96875 378.597656 Z M 374.808594 359.664062 "/>
</g>
<g clip-path="url(#clip2)" clip-rule="nonzero">
<path style=" stroke:none;fill-rule:nonzero;fill:rgb(16.079712%,18.429565%,19.999695%);fill-opacity:1;" d="M 374.808594 495.976562 L 442.96875 488.40625 L 442.96875 378.597656 L 374.808594 359.664062 Z M 374.808594 495.976562 "/>
</g>
<g clip-path="url(#clip3)" clip-rule="nonzero">
<path style=" stroke:none;fill-rule:nonzero;fill:rgb(100%,85.099792%,51.368713%);fill-opacity:1;" d="M 391.675781 414.59375 L 391.675781 427.496094 L 407.6875 429.8125 L 407.6875 417.296875 Z M 418.179688 419.066406 L 418.179688 431.332031 L 430.671875 433.140625 L 430.671875 421.171875 Z M 374.808594 411.753906 L 374.808594 425.054688 L 381.183594 425.976562 L 381.183594 412.828125 Z M 442.96875 423.246094 L 440.925781 422.902344 L 440.925781 434.625 L 442.96875 434.921875 Z M 442.96875 423.246094 "/>
</g>
<g clip-path="url(#clip4)" clip-rule="nonzero">
<path style=" stroke:none;fill-rule:nonzero;fill:rgb(100%,67.449951%,19.999695%);fill-opacity:1;" d="M 306.652344 423.246094 L 306.652344 434.921875 L 308.695312 434.625 L 308.695312 422.902344 Z M 368.4375 412.828125 L 368.4375 425.976562 L 374.808594 425.054688 L 374.808594 411.753906 Z M 318.949219 421.171875 L 318.949219 433.140625 L 331.441406 431.332031 L 331.441406 419.066406 Z M 341.933594 417.296875 L 341.933594 429.8125 L 357.945312 427.496094 L 357.945312 414.59375 Z M 341.933594 417.296875 "/>
</g>
<path style=" stroke:none;fill-rule:nonzero;fill:rgb(100%,85.099792%,51.368713%);fill-opacity:1;" d="M 387.644531 416.957031 L 387.644531 416.800781 C 387.644531 415.207031 387.101562 413.910156 386.429688 413.910156 C 385.761719 413.910156 385.21875 415.207031 385.21875 416.800781 L 385.21875 416.957031 C 384.433594 417.78125 383.875 419.308594 383.875 421.136719 C 383.875 423.078125 384.488281 424.726562 385.363281 425.496094 C 385.605469 426.234375 385.980469 426.746094 386.429688 426.746094 C 386.882812 426.746094 387.257812 426.234375 387.5 425.496094 C 388.375 424.726562 388.988281 423.078125 388.988281 421.136719 C 388.984375 419.308594 388.429688 417.78125 387.644531 416.957031 Z M 414.144531 421.007812 L 414.144531 420.847656 C 414.144531 419.253906 413.601562 417.957031 412.933594 417.957031 C 412.261719 417.957031 411.722656 419.253906 411.722656 420.847656 L 411.722656 421.007812 C 410.933594 421.828125 410.375 423.359375 410.375 425.183594 C 410.375 427.125 410.988281 428.777344 411.863281 429.542969 C 412.105469 430.28125 412.480469 430.792969 412.933594 430.792969 C 413.382812 430.792969 413.757812 430.28125 414 429.542969 C 414.875 428.777344 415.488281 427.125 415.488281 425.183594 C 415.488281 423.363281 414.933594 421.832031 414.144531 421.007812 Z M 436.925781 424.90625 L 436.925781 424.757812 C 436.925781 423.269531 436.421875 422.0625 435.796875 422.0625 C 435.171875 422.0625 434.664062 423.269531 434.664062 424.757812 L 434.664062 424.90625 C 433.929688 425.675781 433.410156 427.101562 433.410156 428.804688 C 433.410156 430.621094 433.980469 432.160156 434.800781 432.878906 C 435.023438 433.570312 435.375 434.046875 435.796875 434.046875 C 436.214844 434.046875 436.5625 433.570312 436.792969 432.878906 C 437.605469 432.164062 438.179688 430.621094 438.179688 428.804688 C 438.179688 427.101562 437.664062 425.675781 436.925781 424.90625 Z M 436.925781 424.90625 "/>
<g clip-path="url(#clip5)" clip-rule="nonzero">
<path style=" stroke:none;fill-rule:nonzero;fill:rgb(100%,67.449951%,19.999695%);fill-opacity:1;" d="M 361.976562 416.957031 L 361.976562 416.800781 C 361.976562 415.207031 362.519531 413.910156 363.191406 413.910156 C 363.859375 413.910156 364.402344 415.207031 364.402344 416.800781 L 364.402344 416.957031 C 365.1875 417.78125 365.746094 419.308594 365.746094 421.136719 C 365.746094 423.078125 365.132812 424.726562 364.257812 425.496094 C 364.015625 426.234375 363.640625 426.746094 363.191406 426.746094 C 362.738281 426.746094 362.363281 426.234375 362.121094 425.496094 C 361.246094 424.726562 360.632812 423.078125 360.632812 421.136719 C 360.636719 419.308594 361.191406 417.78125 361.976562 416.957031 Z M 335.476562 421.007812 L 335.476562 420.847656 C 335.476562 419.253906 336.019531 417.957031 336.6875 417.957031 C 337.359375 417.957031 337.898438 419.253906 337.898438 420.847656 L 337.898438 421.007812 C 338.6875 421.828125 339.246094 423.359375 339.246094 425.183594 C 339.246094 427.125 338.628906 428.777344 337.757812 429.542969 C 337.515625 430.28125 337.140625 430.792969 336.6875 430.792969 C 336.238281 430.792969 335.863281 430.28125 335.621094 429.542969 C 334.746094 428.777344 334.132812 427.125 334.132812 425.183594 C 334.132812 423.363281 334.6875 421.832031 335.476562 421.007812 Z M 312.695312 424.90625 L 312.695312 424.757812 C 312.695312 423.269531 313.199219 422.0625 313.824219 422.0625 C 314.449219 422.0625 314.957031 423.269531 314.957031 424.757812 L 314.957031 424.90625 C 315.691406 425.675781 316.210938 427.101562 316.210938 428.804688 C 316.210938 430.621094 315.640625 432.160156 314.820312 432.878906 C 314.597656 433.570312 314.246094 434.046875 313.824219 434.046875 C 313.40625 434.046875 313.054688 433.566406 312.824219 432.878906 C 312.011719 432.164062 311.4375 430.621094 311.4375 428.804688 C 311.441406 427.101562 311.957031 425.675781 312.695312 424.90625 Z M 306.652344 401.871094 L 306.652344 415.121094 L 374.808594 402.746094 L 374.808594 388.496094 Z M 306.652344 401.871094 "/>
</g>
<g clip-path="url(#clip6)" clip-rule="nonzero">
<path style=" stroke:none;fill-rule:nonzero;fill:rgb(100%,85.099792%,51.368713%);fill-opacity:1;" d="M 374.808594 388.496094 L 374.808594 402.746094 L 442.96875 415.121094 L 442.96875 401.871094 Z M 374.808594 388.496094 "/>
</g>
</g>
</svg>
