<?xml version="1.0" encoding="UTF-8"?>
<svg xmlns="http://www.w3.org/2000/svg" xmlns:xlink="http://www.w3.org/1999/xlink" width="750pt" height="749.999995pt" viewBox="0 0 750 749.999995" version="1.2">
<defs>
<clipPath id="clip1">
  <path d="M 219.21875 163 L 530.46875 163 L 530.46875 587 L 219.21875 587 Z M 219.21875 163 "/>
</clipPath>
</defs>
<g id="surface1">
<g clip-path="url(#clip1)" clip-rule="nonzero">
<path style=" stroke:none;fill-rule:nonzero;fill:rgb(0%,0%,0%);fill-opacity:1;" d="M 374.84375 586.808594 C 461.101562 586.808594 530.433594 516.734375 530.433594 431.355469 C 530.433594 395.914062 517.535156 363.691406 498.1875 336.308594 C 374.84375 163.132812 374.84375 163.132812 374.84375 163.132812 C 374.84375 163.132812 374.84375 163.132812 251.5 336.308594 C 232.152344 362.890625 219.253906 395.109375 219.253906 431.355469 C 219.253906 516.734375 288.582031 586.808594 374.84375 586.808594 Z M 374.84375 326.640625 C 432.082031 326.640625 479.644531 373.359375 479.644531 431.355469 C 479.644531 488.542969 432.886719 536.066406 374.84375 536.066406 C 317.605469 536.066406 270.039062 489.347656 270.039062 431.355469 C 270.039062 373.359375 317.605469 326.640625 374.84375 326.640625 Z M 374.84375 326.640625 "/>
</g>
</g>
</svg>
