<svg width="263" height="263" viewBox="0 0 263 263" fill="none" xmlns="http://www.w3.org/2000/svg">
    <path
        d="M174.125 120.844L131.5 78.2187M131.5 78.2187L88.875 120.844M131.5 78.2187V184.781M259.375 131.5C259.375 148.293 256.067 164.921 249.641 180.436C243.215 195.95 233.796 210.047 221.921 221.921C210.047 233.796 195.95 243.215 180.436 249.641C164.921 256.067 148.293 259.375 131.5 259.375C114.707 259.375 98.0789 256.067 82.5644 249.641C67.0498 243.215 52.953 233.796 41.0787 221.921C29.2044 210.047 19.7852 195.95 13.3589 180.436C6.93258 164.921 3.625 148.293 3.625 131.5C3.625 97.5854 17.0975 65.0599 41.0787 41.0787C65.0599 17.0975 97.5854 3.625 131.5 3.625C165.415 3.625 197.94 17.0975 221.921 41.0787C245.902 65.0599 259.375 97.5854 259.375 131.5Z"
        stroke="black" stroke-width="7" stroke-linecap="round" stroke-linejoin="round" />
</svg>