<?xml version="1.0" encoding="UTF-8" standalone="no"?>
<!-- Created with Inkscape (http://www.inkscape.org/) -->

<svg
   width="1000"
   height="1000"
   viewBox="0 0 264.58333 264.58334"
   version="1.1"
   id="svg5"
   xmlns="http://www.w3.org/2000/svg"
   xmlns:svg="http://www.w3.org/2000/svg">
  <defs
     id="defs2" />
  <g
     id="layer1">
    <path
       id="rect1683"
       style="fill:#ffffff;fill-opacity:1;stroke:#ffffff;stroke-width:0.156264;stroke-opacity:1"
       d="m 51.018363,197.47286 -26.747127,24.80862 9.986959,-1.41414 9.986735,-1.41392 -1.863018,9.57701 -1.86324,9.57722 26.747127,-24.80862 z" />
    <rect
       style="fill:#ffffff;fill-opacity:1;stroke:#ffffff;stroke-width:0.165146;stroke-opacity:1"
       id="rect1852"
       width="23.033089"
       height="6.6870952"
       x="179.58786"
       y="94.20253"
       transform="matrix(0.70539551,0.70881392,-0.73317603,0.6800389,0,0)" />
    <rect
       style="fill:#ffffff;fill-opacity:1;stroke:#ffffff;stroke-width:0.165146;stroke-opacity:1"
       id="rect1852-5"
       width="23.033089"
       height="6.6870952"
       x="179.58786"
       y="85.207298"
       transform="matrix(0.70539551,0.70881392,-0.73317603,0.6800389,0,0)" />
    <path
       id="path2318"
       style="fill:#ffffff;fill-opacity:1;stroke:none;stroke-width:0.205774"
       d="m 199.62888,149.49115 c -6.01106,-4.64631 -6.87192,-13.69637 -2.35432,-20.20148 4.56278,-6.57016 13.39322,-8.92322 19.80248,-4.82074 6.38519,4.08707 7.9708,13.28318 2.91377,20.57984 -2.40569,3.47112 -5.97178,5.90739 -9.83112,6.72998 -3.8647,0.82373 -7.6303,-0.0456 -10.53081,-2.2876 z m -20.20296,22.70891 c -5.23078,-5.45624 -4.7978,-14.41661 0.1996,-20.092 5.05346,-5.73906 13.95973,-7.2884 20.00336,-2.61691 6.01922,4.65262 6.70647,14.02359 0.61835,20.87029 -2.87237,3.23027 -6.78572,5.24602 -10.74403,5.56387 -3.96712,0.31855 -7.5497,-1.08872 -10.07728,-3.72525 z m -24.0462,18.53367 c -1.79056,-3.13029 -2.19065,-7.00575 -1.42602,-10.52529 0.77085,-3.54818 2.6806,-6.67778 5.50188,-8.87843 0.61021,-0.47597 1.2592,-0.9058 1.94249,-1.28605 0,0 0,0 0,0 5.7307,-3.19523 13.41051,-2.66027 18.02785,2.1561 4.61928,4.8184 4.6982,12.80422 -0.8455,18.88856 0,0 0,0 0,0 -0.64171,0.70166 -1.3452,1.35507 -2.10189,1.95091 -3.54607,2.79231 -7.97906,4.10554 -12.04554,3.60641 -4.08163,-0.50099 -7.23445,-2.73251 -9.05327,-5.91221 z m -28.77534,8.98317 c -0.0937,-2.90696 0.83051,-5.82726 2.17094,-8.29702 2.01892,-3.68037 4.9663,-6.39054 8.4648,-7.54961 2.03786,-0.67514 4.29399,-0.85012 6.64293,-0.49932 4.48952,0.65052 9.10415,3.18012 11.49667,7.36278 2.39538,4.18766 2.17691,9.57991 -1.6411,14.13227 -1.95815,2.33305 -4.71217,4.18554 -7.93199,5.22783 -5.74667,1.86024 -11.78981,0.78989 -15.49784,-2.45226 -2.47184,-2.15702 -3.61,-4.99581 -3.70441,-7.92467 z m -28.504861,-8.93674 c 2.133691,-2.92161 5.506551,-4.87234 8.737081,-5.89162 3.26953,-1.03159 6.35946,-1.13363 8.9211,-0.33575 0.19089,0.0595 0.37965,0.12393 0.56642,0.19344 2.38612,0.92725 4.70931,2.824 6.66462,5.47338 1.93586,2.62303 3.50351,6.01844 3.61564,9.49729 0.11307,3.50762 -1.2932,6.99832 -4.68808,9.39706 -3.38424,2.39123 -8.2987,3.29575 -13.37566,2.03254 -0.37527,-0.0962 -0.7475,-0.20339 -1.11594,-0.32134 -5.16265,-1.65274 -9.009462,-5.1998 -10.632442,-9.21968 -1.626877,-4.02954 -0.841377,-7.88325 1.307261,-10.82532 z M 78.886866,167.50317 c 5.954266,-3.09224 13.487506,-1.19734 17.677229,2.67049 0,0 0,0 0,0 0.477984,0.43882 0.918402,0.9064 1.32056,1.40164 1.688871,2.07976 2.677265,4.62431 3.001215,7.4672 0.31842,2.79439 -0.0102,5.9666 -1.152234,8.77583 0,0 0,0 0,0 -0.426756,1.0483 -0.967434,2.04896 -1.634117,2.96183 -0.667029,0.91334 -1.455594,1.73235 -2.370536,2.41888 0,0 -10e-7,0 -10e-7,0 -2.492503,1.87194 -5.807912,2.65708 -9.477209,1.90279 -3.658111,-0.75199 -7.216008,-2.96202 -9.810198,-6.17558 -0.608366,-0.75362 -1.153419,-1.54987 -1.629049,-2.3779 0,0 -1e-6,0 -1e-6,0 -2.16548,-3.75821 -2.784468,-7.85618 -1.927034,-11.37904 0.858501,-3.52725 3.091978,-6.15519 6.001375,-7.66614 z M 69.408512,138.6966 c 3.59521,-0.60553 7.329857,0.37671 10.37089,2.35425 3.053359,1.98555 5.283434,4.8697 6.349905,8.13964 0.953859,2.92465 0.967356,6.11471 0.03981,9.18723 -1.141311,3.75978 -3.716399,7.27359 -7.282252,9.12545 -3.604941,1.87216 -7.963346,1.86711 -11.950247,-0.58766 -3.17769,-1.94985 -5.718128,-5.2405 -7.002524,-9.1662 -1.442723,-4.40962 -1.114912,-9.03204 0.771905,-12.64309 1.890244,-3.61762 5.094192,-5.80187 8.702512,-6.40962 z m -0.725846,-30.35859 c 3.610487,0.45159 6.921745,2.46252 9.277152,5.20713 2.370784,2.76252 3.7045,6.15821 3.779032,9.64983 0.0096,0.44942 -0.0015,0.8994 -0.03333,1.34899 -0.408689,6.47968 -5.385243,12.9885 -12.29701,14.15264 -3.371183,0.56781 -6.861315,-0.27738 -9.748381,-2.68791 -2.881845,-2.40616 -4.849901,-6.13719 -5.360495,-10.37073 -0.07273,-0.57556 -0.117652,-1.15576 -0.134439,-1.73776 -0.132583,-4.59661 1.4902,-8.94551 4.336645,-11.88911 2.853348,-2.95074 6.546695,-4.12763 10.180824,-3.67308 z m 8.907602,-28.927009 c 4.502826,2.410232 7.360986,7.448516 7.91681,12.123584 0,0 0,10e-7 0,10e-7 0.231228,2.024 0.05857,4.02466 -0.518672,5.925531 -0.967761,3.186833 -3.080419,6.069223 -6.045744,8.133973 -2.953733,2.05667 -6.641492,3.19651 -10.259996,2.74392 -3.629648,-0.45399 -6.92884,-2.50213 -8.944519,-6.0783 -2.012178,-3.56996 -2.473557,-8.248773 -1.099584,-12.787136 0.806548,-2.664107 2.195573,-5.095784 4.006942,-7.030832 0,0 10e-7,-1e-6 10e-7,-1e-6 4.491695,-4.793253 10.366154,-5.481536 14.944762,-3.03074 z M 97.630714,56.893905 c 0.957823,1.422912 1.615112,3.032187 2.015153,4.7018 0,0 10e-7,10e-7 10e-7,10e-7 1.299002,5.428585 -0.05297,11.017092 -3.091832,14.454659 -0.828948,0.937709 -1.794378,1.752868 -2.888128,2.442126 0,0 0,0 0,0 -4.256363,2.679567 -10.901289,3.688191 -16.07564,0.91851 -5.203049,-2.785042 -7.980857,-9.321247 -4.814475,-16.723779 0,0 0,-10e-7 0,-10e-7 0.755911,-1.757528 1.813923,-3.423182 3.123821,-4.903856 5.281773,-5.970377 12.897433,-7.339695 17.994228,-4.409708 0,0 10e-7,0 10e-7,0 1.533243,0.881905 2.778401,2.096374 3.736871,3.520248 z M 125.95675,46.495639 c 0.82897,6.103914 -2.79394,12.137038 -7.22587,15.083607 0,0 0,1e-6 0,1e-6 -0.90578,0.601432 -1.86012,1.08418 -2.85789,1.444741 -2.9549,1.067812 -6.29679,1.045494 -9.63418,-0.0095 -3.29651,-1.042103 -6.588417,-3.120179 -8.608096,-6.120553 -2.043266,-3.035415 -2.653638,-6.878106 -1.031631,-10.815229 1.615596,-3.921562 5.242997,-7.309352 9.904497,-8.992746 1.53451,-0.554153 3.1246,-0.901467 4.71111,-1.033285 0,0 0,0 0,0 8.35362,-0.672037 13.91216,4.332329 14.74206,10.442994 z m 30.42602,-0.566773 c -0.26058,7.551818 -7.06177,13.606314 -15.25979,13.589088 -1.02551,-0.0022 -2.05274,-0.09902 -3.06544,-0.289991 0,0 0,0 0,0 -2.93278,-0.630631 -5.68394,-2.188509 -7.8836,-4.444996 -2.19079,-2.247384 -3.79249,-5.160147 -4.21719,-8.287328 -0.42769,-3.149161 0.3696,-6.363358 2.58459,-9.061564 2.20953,-2.691558 5.62458,-4.589307 9.55936,-5.208126 0,0 0,0 0,0 1.01,-0.190965 2.04293,-0.288076 3.08346,-0.288645 4.07167,-0.0022 8.04674,1.475762 10.93522,4.12613 2.89577,2.657055 4.38978,6.202508 4.26339,9.865432 z m 30.17893,3.857646 c -0.96063,3.48086 -3.40993,6.511887 -6.40867,8.498059 -3.02724,2.005051 -6.55888,2.912388 -10.18377,2.415223 -0.0708,-0.0097 -0.14153,-0.01994 -0.21226,-0.0307 -7.27618,-0.973363 -13.63512,-7.179281 -13.37423,-14.740227 0.25777,-7.470408 7.25531,-13.559188 16.50861,-12.647514 0.0855,0.0071 0.17109,0.0149 0.25663,0.02333 4.42884,0.436511 8.55289,2.60029 11.14222,5.856479 2.59975,3.269283 3.24813,7.086377 2.27147,10.625348 z m 25.29496,15.837881 c -1.18222,0.885057 -2.51441,1.555075 -3.8969,2.064819 -2.62068,0.964865 -5.5506,1.388743 -7.94853,1.369476 -2.48849,-0.02 -4.64279,-0.500136 -6.48341,-1.605118 -0.0121,-0.0077 -0.0243,-0.01549 -0.0364,-0.02327 -2.32752,-1.493998 -4.46346,-3.966864 -5.87695,-7.143615 -1.41822,-3.187373 -2.02601,-6.973586 -1.05277,-10.500168 0.96977,-3.513981 3.47941,-6.514546 7.45176,-7.85552 3.96706,-1.339189 8.97073,-0.817339 13.57762,1.811062 0.0229,0.01308 0.0458,0.0262 0.0687,0.03937 3.6656,2.18204 6.39335,5.483406 7.66553,9.044366 1.27412,3.566393 0.94396,6.915598 -0.51721,9.499158 -0.74955,1.322621 -1.76905,2.414258 -2.95144,3.299444 z m 8.70077,28.668882 c -3.65683,0.09967 -7.20093,-1.399518 -9.96771,-3.603762 -2.76658,-2.204086 -4.6243,-4.969233 -5.4316,-7.710822 -0.0185,-0.06269 -0.0364,-0.125441 -0.0538,-0.188256 -0.7312,-2.670819 -0.36379,-5.597119 0.80488,-8.685365 1.13126,-2.989386 3.13295,-6.373584 5.94751,-8.480677 2.89443,-2.166885 6.67897,-2.965446 10.7481,-1.207716 4.04302,1.746454 7.5238,5.743571 9.00207,10.792879 0.0321,0.110422 0.0633,0.221047 0.0934,0.331853 1.3718,5.040781 0.614,9.949955 -1.68004,13.443254 -2.29392,3.493122 -5.8195,5.20931 -9.46276,5.308612 z m -3.48044,30.175885 c -7.44459,-1.6805 -11.90661,-9.50835 -11.00459,-16.67996 0.45699,-3.63332 2.22244,-6.96479 4.97303,-9.478059 2.55957,-2.342909 5.99773,-3.92208 9.512,-4.017866 3.56374,-0.09713 7.01634,1.351998 9.53135,4.424624 2.66155,3.233391 3.90325,7.835021 3.33957,12.454841 -0.54733,4.48575 -2.71691,8.39374 -5.85653,10.85189 -3.13754,2.45653 -6.93488,3.24813 -10.49483,2.44453 z" />
  </g>
</svg>
